<svg width="25" height="24" viewBox="0 0 25 24" fill="none" xmlns="http://www.w3.org/2000/svg">
<rect width="25" height="24" fill="#F5F5F5"/>
<rect x="-2083" y="-270" width="2756" height="2934" rx="16" fill="white"/>
<rect x="-42.5" y="-32.5" width="432" height="404" rx="4.5" stroke="#404040" stroke-dasharray="10 5"/>
<mask id="path-3-inside-1_1_3" fill="white">
<path d="M-23 -13H370V44H-23V-13Z"/>
</mask>
<path d="M-23 -13H370V44H-23V-13Z" fill="white"/>
<path d="M-23 -12H370V-14H-23V-12Z" fill="#E4E4E4" mask="url(#path-3-inside-1_1_3)"/>
<path d="M5 11.9361C5 11.797 5.05789 11.6643 5.15977 11.5697L11.1598 5.99824C11.3516 5.82011 11.6484 5.82011 11.8402 5.99824L17.8402 11.5697C17.9421 11.6643 18 11.797 18 11.9361V20C18 20.2761 17.7761 20.5 17.5 20.5H15.875H15H14.125H13.75V16.2924C13.75 15.4639 13.0784 14.7924 12.25 14.7924H10.75C9.92157 14.7924 9.25 15.4639 9.25 16.2924V18V20.5H6.6875H5.5C5.22386 20.5 5 20.2761 5 20V11.9361Z" stroke="#02006C"/>
</svg>
